# xmcd CD database file
#
# Track frame offsets:
#	150
#	17719
#	30636
#	48267
#	64568
#
# Disc length: 1099 seconds
#
# Revision: 0
# Processed by: cddbd v1.5PL3 Copyright (c) Steve Scherf et al.
# Submitted via: CDex 1.51
#
DISCID=34044905
DTITLE=CRAVE - 星に願いを
DYEAR=2004
DGENRE=Hard Rock
TTITLE0=Notice
TTITLE1=No Surprise
TTITLE2=Right Now
TTITLE3=I Don't Know
TTITLE4=Brightest Star
EXTD=YEAR: 2004
EXTT0=
EXTT1=
EXTT2=
EXTT3=
EXTT4=
PLAYORDER=
